<?xml version="1.0" standalone="no"?>
<!DOCTYPE svg PUBLIC "-//W3C//DTD SVG 20010904//EN"
 "http://www.w3.org/TR/2001/REC-SVG-20010904/DTD/svg10.dtd">
<svg version="1.0" xmlns="http://www.w3.org/2000/svg"
 width="1080.000000pt" height="1080.000000pt" viewBox="0 0 1080.000000 1080.000000"
 preserveAspectRatio="xMidYMid meet">

<g transform="translate(0.000000,1080.000000) scale(0.100000,-0.100000)"
fill="#000000" stroke="none">
<path d="M0 5400 l0 -5400 5400 0 5400 0 0 5400 0 5400 -5400 0 -5400 0 0
-5400z m5230 4310 l0 -430 -87 0 c-353 0 -790 -89 -1134 -231 -965 -396 -1667
-1205 -1986 -2289 -169 -575 -199 -1264 -82 -1880 77 -405 226 -810 425 -1156
160 -278 328 -496 594 -768 206 -211 399 -364 645 -509 456 -269 905 -397
1488 -423 l137 -6 0 -423 0 -423 -62 -4 c-88 -5 -328 8 -488 27 -875 100
-1720 522 -2356 1177 -349 360 -604 717 -823 1155 -259 518 -402 1014 -468
1618 -24 229 -25 799 0 1015 69 603 213 1094 472 1611 479 956 1229 1677 2156
2072 427 182 952 292 1417 296 l152 1 0 -430z m634 375 c556 -95 1120 -331
1587 -666 157 -113 389 -290 389 -298 0 -6 -506 -621 -535 -650 -12 -12 -21
-8 -67 31 -126 107 -363 272 -523 365 -307 178 -713 325 -1030 373 -38 5 -80
12 -92 15 l-23 5 0 432 0 431 74 -7 c41 -4 140 -18 220 -31z m-634 -4075 l0
-2910 -72 -53 c-356 -263 -923 -423 -1563 -442 l-180 -6 110 34 c524 160 850
382 1069 729 l36 58 -97 45 c-130 61 -203 85 -258 85 -60 0 -80 -11 -136 -72
l-47 -51 -33 23 c-61 43 -172 136 -252 211 l-77 74 0 683 0 682 119 0 120 0
34 -42 c53 -65 96 -150 207 -413 206 -486 303 -658 462 -820 70 -71 91 -87 98
-75 13 25 69 258 85 360 39 252 47 396 52 1031 l5 626 -108 58 c-215 114 -311
169 -409 236 -414 281 -615 627 -615 1059 0 112 19 275 40 335 9 27 9 27 4
-10 -27 -173 -18 -408 20 -559 70 -274 238 -503 491 -672 161 -108 401 -240
538 -297 l37 -16 0 294 0 293 -72 49 c-367 243 -498 469 -467 803 37 392 180
695 423 896 l48 40 -32 94 c-35 103 -62 162 -118 255 -40 67 -170 243 -195
264 -10 7 -17 17 -17 22 0 5 167 9 375 9 l375 0 0 -2910z m1085 2865 c-153
-188 -248 -346 -301 -503 -15 -45 -25 -84 -23 -86 2 -2 46 -27 98 -56 135 -76
198 -80 270 -15 l38 35 84 -56 c46 -31 135 -97 197 -147 l112 -90 0 -624 0
-623 -130 0 -130 0 -37 57 c-50 78 -77 141 -183 422 -105 281 -144 370 -201
473 -44 78 -125 193 -157 221 -19 17 -19 16 -26 -29 -3 -26 -6 -398 -6 -828
l0 -782 88 -43 c548 -271 813 -496 978 -831 135 -275 163 -633 74 -958 -22
-79 -79 -226 -86 -219 -2 2 3 48 11 103 19 127 19 420 1 534 -49 296 -167 524
-394 762 -163 170 -346 293 -614 412 l-58 25 0 -302 1 -302 71 -45 c88 -55
240 -203 298 -289 54 -81 103 -187 130 -282 68 -237 8 -675 -129 -947 -88
-175 -233 -340 -386 -441 -85 -55 -261 -146 -307 -157 l-28 -6 0 2831 0 2831
391 0 391 0 -37 -45z m1136 -6209 c74 -88 161 -191 193 -230 33 -39 90 -107
128 -150 37 -43 68 -83 68 -87 0 -13 -235 -202 -373 -301 -379 -271 -758 -455
-1206 -587 -139 -41 -418 -97 -568 -114 l-123 -13 0 432 0 432 58 7 c124 15
355 69 507 120 370 123 713 313 1038 576 93 75 125 95 133 86 6 -7 71 -84 145
-171z"/>
<path d="M4830 8068 c-152 -94 -266 -262 -304 -450 -21 -100 -21 -272 0 -352
37 -145 146 -306 292 -428 44 -38 83 -68 87 -68 12 0 -2 1021 -15 1175 -7 72
-15 133 -18 137 -4 4 -23 -3 -42 -14z"/>
<path d="M5917 4857 c-8 -565 -57 -831 -217 -1164 -32 -68 -55 -123 -50 -123
23 0 153 46 213 76 219 109 376 318 429 570 37 178 13 446 -52 599 -46 108
-177 279 -273 358 l-45 36 -5 -352z"/>
</g>
</svg>
